<?xml version="1.0" encoding="UTF-8"?><svg id="Layer_1" xmlns="http://www.w3.org/2000/svg" viewBox="0 0 360 160"><path d="M197.71,74.62V19.9h5.39v54.72h-5.39ZM214.36,70.19c4.56,0,8.47-.91,11.75-2.73,3.27-1.82,5.78-4.44,7.53-7.85,1.74-3.41,2.61-7.5,2.61-12.27s-.87-9.02-2.61-12.44c-1.74-3.41-4.25-6.02-7.53-7.85-3.27-1.82-7.19-2.73-11.75-2.73h-12.87v-4.42h12.87c5.69,0,10.57,1.1,14.64,3.29,4.08,2.2,7.24,5.34,9.49,9.42,2.26,4.08,3.38,8.98,3.38,14.72s-1.12,10.57-3.38,14.65c-2.26,4.08-5.42,7.2-9.49,9.37-4.08,2.18-8.96,3.26-14.64,3.26h-12.87v-4.42h12.87v.02Z"/><path d="M285.74,74.62l-18.03-45.14-1.69-4.67h.32l-1.61,4.67-18.11,45.14h-5.39l21.89-54.72h6.36l21.97,54.72h-5.71,0ZM251.62,60.29v-4.42h28.97v4.42s-28.97,0-28.97,0Z"/><path d="M332.16,74.62l-15.13-20.76-2.73-4.1h1.05l-2.73,4.1-15.13,20.76h-5.96l20.44-28.32-18.91-26.39h6.36l13.44,18.26,3.06,4.58h-1.12l3.06-4.58,13.27-18.26h5.96l-18.83,26.31,20.28,28.4h-6.36Z"/><path d="M197.85,141.8v-55.26h16.58v55.26h-16.58,0ZM210.04,141.8v-13.41h26.41v13.41h-26.41,0Z"/><path d="M252.95,141.8v-55.26h16.58v55.26h-16.58Z"/><path d="M288.46,141.8v-55.26h16.58v55.26h-16.58ZM315.52,141.8h-14.87v-13h14.47c1.73,0,3.02-.43,3.86-1.3s1.26-1.98,1.26-3.34c0-1.25-.39-2.32-1.18-3.21-.78-.9-2.07-1.34-3.86-1.34h-14.55v-11.62h11.38c1.84,0,3.13-.39,3.86-1.18.73-.78,1.1-1.77,1.1-2.96,0-1.3-.37-2.34-1.1-3.13-.73-.78-1.88-1.18-3.46-1.18h-11.78v-13h12.11c6.61,0,11.79,1.48,15.56,4.43,3.76,2.95,5.64,6.92,5.64,11.91,0,3.03-.91,5.56-2.72,7.56-1.82,2-4.15,3.39-7.03,4.15l.08-3.49c4.07.76,7.23,2.3,9.51,4.63,2.27,2.33,3.41,5.39,3.41,9.18,0,5.43-1.86,9.59-5.57,12.52s-9.09,4.39-16.13,4.39h0Z"/><path d="M131.64,25.54c2.07,0,3.75,1.68,3.75,3.75v13.5c0,1.21.98,2.2,2.2,2.2h10.18c4.58,0,8.29,3.71,8.29,8.29v72.87c0,4.58-3.71,8.29-8.29,8.29H38.57c-4.58,0-8.29-3.71-8.29-8.29V53.29c0-4.58,2.44-8.29,7.02-8.29h11.37c1.21,0,2.2-.98,2.2-2.2v-13.4c0-2.07,1.68-3.75,3.75-3.75h18.89c2.07,0,3.75,1.68,3.75,3.75v13.4c0,1.21.98,2.2,2.2,2.2h27.34c1.21,0,2.2-.98,2.2-2.2v-13.5c0-2.07,1.68-3.75,3.75-3.75h18.89" style="fill:#fff;"/><path d="M148.69,42.21l-9.98-.18c-1.21,0-1.81-13.97-1.81-13.97,0-2.07-2.46-5.2-4.54-5.2h-26.31l-10.47,79.91-66.85,33.45,119.79.55c4.58,0,9.8-3.8,9.8-8.38V53.46c0-4.58-5.04-11.25-9.62-11.25h0Z" style="fill:#e6e6e6;"/><path d="M131.64,25.54c2.07,0,3.75,1.68,3.75,3.75v13.5c0,1.21.98,2.2,2.2,2.2h10.18c4.58,0,8.29,3.71,8.29,8.29v72.87c0,4.58-3.71,8.29-8.29,8.29H38.57c-4.58,0-8.29-3.71-8.29-8.29V53.29c0-4.58,2.44-8.29,7.02-8.29h11.37c1.21,0,2.2-.98,2.2-2.2v-13.4c0-2.07,1.68-3.75,3.75-3.75h18.89c2.07,0,3.75,1.68,3.75,3.75v13.4c0,1.21.98,2.2,2.2,2.2h27.34c1.21,0,2.2-.98,2.2-2.2v-13.5c0-2.07,1.68-3.75,3.75-3.75h18.89M131.64,16.74h-18.89c-6.93,0-12.55,5.62-12.55,12.55v6.91h-14.14v-6.8c0-6.93-5.62-12.55-12.55-12.55h-18.89c-6.93,0-12.55,5.62-12.55,12.55v6.8h-4.76c-9.44,0-15.82,7.66-15.82,17.09v72.87c0,9.44,7.66,17.09,17.09,17.09h109.21c9.44,0,17.09-7.66,17.09-17.09V53.29c0-9.44-7.66-17.09-17.09-17.09h-3.58v-6.91c0-6.92-5.64-12.55-12.55-12.55h0Z"/><path d="M70.35,70.31v40.65c0,4.76-3.86,8.61-8.61,8.61h0c-4.76,0-8.61-3.86-8.61-8.61v-40.65c0-4.76,3.86-8.61,8.61-8.61h0c4.76,0,8.61,3.86,8.61,8.61ZM93.48,80.15h0c-4.76,0-8.61,3.86-8.61,8.61v22.19c0,4.76,3.86,8.61,8.61,8.61h0c4.76,0,8.61-3.86,8.61-8.61v-22.19c0-4.76-3.86-8.61-8.61-8.61ZM124.62,92.86h0c-4.76,0-8.61,3.86-8.61,8.61v9.48c0,4.76,3.86,8.61,8.61,8.61h0c4.76,0,8.61-3.86,8.61-8.61v-9.48c0-4.76-3.86-8.61-8.61-8.61Z"/></svg>