<?xml version="1.0" encoding="UTF-8"?><svg id="Layer_1" xmlns="http://www.w3.org/2000/svg" viewBox="0 0 360 160"><path d="M202.25,74.18V21.23h5.22v52.95h-5.22ZM218.37,69.89c4.42,0,8.2-.88,11.37-2.65,3.16-1.76,5.59-4.29,7.28-7.6,1.68-3.29,2.53-7.26,2.53-11.87s-.84-8.74-2.53-12.03-4.12-5.83-7.28-7.6c-3.16-1.76-6.96-2.65-11.37-2.65h-12.46v-4.28h12.46c5.5,0,10.22,1.07,14.17,3.19,3.95,2.13,7.01,5.16,9.19,9.11,2.18,3.95,3.27,8.69,3.27,14.25s-1.09,10.22-3.27,14.17c-2.18,3.95-5.25,6.97-9.19,9.06-3.95,2.1-8.67,3.15-14.17,3.15h-12.46v-4.28h12.46v.02Z" style="fill:#fff;"/><path d="M287.43,74.18l-17.45-43.68-1.64-4.52h.31l-1.55,4.52-17.52,43.68h-5.22l21.18-52.95h6.16l21.26,52.95h-5.53ZM254.42,60.31v-4.28h28.03v4.28h-28.03Z" style="fill:#fff;"/><path d="M332.36,74.18l-14.64-20.09-2.65-3.97h1.01l-2.65,3.97-14.64,20.09h-5.76l19.78-27.41-18.3-25.54h6.16l13,17.67,2.96,4.43h-1.09l2.96-4.43,12.84-17.67h5.76l-18.22,25.46,19.63,27.48h-6.16Z" style="fill:#fff;"/><path d="M202.38,139.19v-53.48h16.04v53.48h-16.04ZM214.18,139.19v-12.97h25.56v12.97h-25.56Z" style="fill:#fff;"/><path d="M255.71,139.19v-53.48h16.04v53.48h-16.04Z" style="fill:#fff;"/><path d="M290.08,139.19v-53.48h16.04v53.48h-16.04ZM316.26,139.19h-14.4v-12.58h14c1.67,0,2.92-.41,3.73-1.25s1.22-1.91,1.22-3.23c0-1.21-.38-2.25-1.14-3.11s-2-1.3-3.73-1.3h-14.08v-11.24h11.01c1.78,0,3.03-.38,3.73-1.14.71-.76,1.07-1.71,1.07-2.87,0-1.26-.36-2.26-1.07-3.03-.71-.76-1.82-1.14-3.34-1.14h-11.4v-12.58h11.72c6.4,0,11.41,1.43,15.06,4.28,3.64,2.85,5.46,6.7,5.46,11.52,0,2.94-.88,5.38-2.64,7.32-1.76,1.95-4.02,3.28-6.8,4.01l.07-3.38c3.93.73,7,2.23,9.2,4.48s3.3,5.22,3.3,8.89c0,5.25-1.8,9.28-5.39,12.11s-8.79,4.25-15.61,4.25h0Z" style="fill:#fff;"/><path d="M147.7,41.7h-10.94c-1.3,0-2.37-1.06-2.37-2.37v-14.5c0-2.23-1.81-4.03-4.03-4.03h-20.29c-2.23,0-4.03,1.81-4.03,4.03v14.5c0,1.3-1.06,2.37-2.37,2.37h-29.36c-1.3,0-2.37-1.06-2.37-2.37v-14.4c0-2.23-1.81-4.03-4.03-4.03h-20.29c-2.23,0-4.03,1.81-4.03,4.03v14.4c0,1.3-1.06,2.37-2.37,2.37h-12.21c-4.92,0-7.54,3.98-7.54,8.91v78.27c0,4.92,3.98,8.91,8.91,8.91h117.29c4.92,0,8.91-3.98,8.91-8.91V50.6c0-4.92-3.98-8.91-8.91-8.91h.02ZM64.54,112.55c0,5.11-4.14,9.26-9.25,9.26h0c-5.11,0-9.25-4.14-9.25-9.26v-43.66c0-5.11,4.14-9.25,9.25-9.25h0c5.11,0,9.25,4.14,9.25,9.25v43.66ZM98.63,112.55c0,5.11-4.14,9.26-9.26,9.26s-9.26-4.14-9.26-9.26v-23.83c0-5.11,4.14-9.25,9.26-9.25s9.26,4.14,9.26,9.25v23.83ZM132.08,112.55c0,5.11-4.14,9.26-9.26,9.26s-9.26-4.14-9.26-9.26v-10.19c0-5.11,4.14-9.25,9.26-9.25s9.26,4.14,9.26,9.25v10.19Z" style="fill:#fff;"/><path d="M147.7,41.7h-10.94c-1.31,0-2.37-1.06-2.37-2.37v-14.5c0-2.23-1.81-4.03-4.03-4.03h-20.29c-2.23,0-4.03,1.81-4.03,4.03v14.5c0,1.3-1.06,2.37-2.37,2.37h-3.94l-5.15,39.37c2.43,1.67,4.03,4.46,4.03,7.64v23.83c0,5.11-4.14,9.26-9.26,9.26s-9.26-4.14-9.26-9.26v-3.05l-17.6,8.81c-1.64,2.06-4.13,3.4-6.95,3.48l-29.58,14.81c1.31.75,2.82,1.19,4.42,1.19h117.29c4.92,0,8.91-3.98,8.91-8.91V50.6c0-4.92-3.98-8.91-8.91-8.91h.02ZM132.08,112.55c0,5.11-4.14,9.26-9.26,9.26s-9.26-4.14-9.26-9.26v-10.19c0-5.11,4.14-9.25,9.26-9.25s9.26,4.14,9.26,9.25v10.19Z" style="fill:#e6e6e6;"/></svg>